<svg viewBox="0 0 22 22" version="1.1" xmlns="http://www.w3.org/2000/svg" xmlns:xlink="http://www.w3.org/1999/xlink">
        <path d="M10.6822554,6.55429748 L10.729944,7.37610108 L9.93513333,7.27547209 C7.04202252,6.88972752 4.5145246,5.58155036 2.36853579,3.3844837 L1.31938569,2.29433606 L1.0491501,3.09936812 C0.476886403,4.89391883 0.842499282,6.78909853 2.03471529,8.06373261 C2.67056383,8.76813568 2.52749792,8.86876475 1.43065921,8.44947718 C1.0491501,8.31530512 0.715329605,8.21467613 0.683537148,8.26499067 C0.572263699,8.38239119 0.953772806,9.90859778 1.25580085,10.5123719 C1.66910241,11.350947 2.51160169,12.1727505 3.43358204,12.6591241 L4.21249649,13.0448686 L3.29051614,13.0616401 C2.40032817,13.0616401 2.36853579,13.0784116 2.46391308,13.4306131 C2.78183735,14.5207608 4.0376382,15.6779944 5.43650495,16.1811394 L6.42207014,16.533341 L5.56367463,17.070029 C4.29197755,17.8415181 2.79773351,18.2775772 1.30348946,18.3111202 C0.588159852,18.3278916 0,18.3949776 0,18.4452922 C0,18.6130071 1.93933799,19.5522113 3.06796916,19.9211843 C6.4538626,21.0113319 10.4756046,20.5417298 13.4958851,18.6800932 C15.6418739,17.3551445 17.7878628,14.7220188 18.7893242,12.1727505 C19.3297954,10.8142589 19.8702667,8.33207666 19.8702667,7.14130003 C19.8702667,6.36981096 19.9179553,6.26918198 20.8081432,5.34674939 C21.3327183,4.8100613 21.8255009,4.22305875 21.9208782,4.0553437 C22.0798403,3.7366852 22.0639442,3.7366852 21.2532373,4.0218007 C19.9020591,4.5249458 19.7113045,4.4578598 20.3789455,3.7031422 C20.8717281,3.16645411 21.459888,2.19370707 21.459888,1.90859149 C21.459888,1.85827703 21.2214448,1.94213456 20.9512092,2.093078 C20.6650773,2.26079306 20.0292288,2.51236557 19.5523424,2.66330909 L18.6939469,2.94842459 L17.9150324,2.39496504 C17.4858346,2.093078 16.8817786,1.75764804 16.5638543,1.65701898 C15.7531474,1.42221801 14.5132428,1.455761 13.7820169,1.72410497 C11.7949903,2.47882257 10.5391894,4.42431681 10.6822554,6.55429748 C10.6822554,6.55429748 10.5391894,4.42431681 10.6822554,6.55429748 L10.6822554,6.55429748 L10.6822554,6.55429748 Z" class="twitter-link" fill="#CCC"></path>
</svg>
