<svg viewBox="-1 -1 352 66" version="1.1" xmlns="http://www.w3.org/2000/svg" xmlns:xlink="http://www.w3.org/1999/xlink">
    <g id="Page-1" stroke="none" stroke-width="1" fill="none" fill-rule="evenodd">
        <g id="knowledge-illustration-1">
            <rect id="background" stroke="#E1E7EC" x="0" y="0" width="350" height="65" rx="3"></rect>
            <rect id="content-1" fill="#E1E7EC" x="60" y="32" width="247" height="5"></rect>
            <rect id="content-2" fill="#E1E7EC" x="60" y="42" width="167" height="5"></rect>
            <rect id="username" fill="#B1BFCA" x="60" y="18" width="110" height="6"></rect>
            <rect id="picture" fill="#B1BFCA" x="15" y="15" width="35" height="35" rx="3"></rect>
            <path d="M29.2374681,34.443268 L27.9021704,38.6986092 C27.8013621,39.0258167 27.8839919,39.1639344 28.0872612,39.1639344 C28.1665858,39.1639344 28.2607838,39.1080296 28.3715077,39.0488363 L32.4600304,36.8257987 L36.5997836,39.0307495 C36.708855,39.0899428 36.8047056,39.1129624 36.8823776,39.1129624 C37.0856469,39.1129624 37.1649715,38.9189399 37.0625106,38.5900882 L35.6842454,34.2180045 L38.4539965,31.677625 C38.8026942,31.3701486 39.4191126,30.9327758 38.7184118,30.9327758 L35.0463433,30.9327758 L32.9293677,26.6938771 C32.8153386,26.4883448 32.6104167,26 32.4600304,26 C32.3096442,26 32.1311638,26.4620367 32.0187873,26.667569 L29.8753702,30.9327758 L26.0677888,30.9327758 C25.6909969,30.9327758 25.796763,31.1892802 26.0116005,31.3701486 L29.2374681,34.443268" id="star" fill="#FFFFFF"></path>
        </g>
    </g>
</svg>
