<svg width="207" height="49" viewBox="0 0 207 49" xmlns="http://www.w3.org/2000/svg"><g fill="none"><path d="M9.174 1.769c-1.095-.193-2.138.533-2.334 1.639-.194 1.098.534 2.145 1.631 2.339l34.93 6.17c1.095.193 2.138-.533 2.334-1.639.194-1.098-.534-2.145-1.631-2.339l-34.93-6.17zm-5.449 4.897c-1.095-.193-2.138.533-2.334 1.639-.194 1.098.534 2.145 1.631 2.339l34.93 6.17c1.095.193 2.138-.533 2.334-1.639.194-1.098-.534-2.145-1.631-2.339l-34.93-6.17zm3.451 6.469c-1.1-.194-2.148.531-2.343 1.637-.194 1.098.544 2.147 1.64 2.341l28.244 4.989c1.1.194 2.148-.531 2.343-1.637.194-1.098-.544-2.147-1.64-2.341l-28.244-4.989zm5.67 6.861c-1.103-.195-2.154.53-2.349 1.636-.194 1.098.542 2.146 1.647 2.342l23.786 4.202c1.103.195 2.154-.53 2.349-1.636.194-1.098-.542-2.146-1.647-2.342l-23.786-4.202zm4.544 6.662c-1.099-.194-2.146.531-2.341 1.637-.194 1.098.535 2.145 1.638 2.34l19.358 3.42c1.099.194 2.146-.531 2.341-1.637.194-1.098-.535-2.145-1.638-2.34l-19.358-3.42zm-5.452 4.896c-1.097-.194-2.142.532-2.338 1.638-.194 1.098.542 2.147 1.635 2.34l17.142 3.028c1.097.194 2.142-.532 2.338-1.638.194-1.098-.542-2.147-1.635-2.34l-17.142-3.028zm-3.222 5.29c-1.099-.194-2.146.531-2.342 1.637-.194 1.098.539 2.146 1.639 2.34l9.911 1.751c1.099.194 2.146-.531 2.342-1.637.194-1.098-.539-2.146-1.639-2.34l-9.911-1.751zm2.33 6.271c-1.099-.194-2.146.531-2.342 1.637-.194 1.098.541 2.146 1.639 2.34l1.576.278c1.099.194 2.146-.531 2.342-1.637.194-1.098-.541-2.146-1.639-2.34l-1.576-.278z" fill="#4A90E2"/><path d="M83.922 13.371c.247.247.371.549.371.905s-.124.653-.371.89-.549.356-.905.356h-6.021v16.996c0 .376-.133.692-.4.949s-.588.386-.964.386-.692-.129-.949-.386-.386-.573-.386-.949v-16.996h-6.051c-.356 0-.653-.119-.89-.356s-.356-.534-.356-.89.119-.657.356-.905c.237-.247.534-.371.89-.371h14.771c.356 0 .657.124.905.371zm21.796 5.858c.158-.534.583-.801 1.275-.801.336 0 .633.129.89.386s.386.519.386.786-.03.489-.089.667l-4.212 12.339c-.119.336-.336.628-.653.875-.316.247-.672.371-1.068.371-.395 0-.751-.124-1.068-.371-.316-.247-.544-.549-.682-.905l-3.144-9.818-3.144 9.818c-.138.356-.366.657-.682.905-.316.247-.672.371-1.068.371-.395 0-.751-.124-1.068-.371-.316-.247-.534-.539-.653-.875l-4.212-12.339c-.059-.178-.089-.4-.089-.667s.129-.529.386-.786.554-.386.89-.386c.692 0 1.117.267 1.275.801l3.47 11.419 3.441-11.153c.099-.316.282-.573.549-.771.267-.198.569-.297.905-.297.336 0 .638.099.905.297.267.198.45.455.549.771l3.441 11.153 3.47-11.419zm9.946 11.064c.85.791 2.037 1.186 3.559 1.186 1.523 0 2.798-.257 3.826-.771.356-.178.662-.267.919-.267s.504.109.742.326c.237.218.356.465.356.742 0 .514-.213.885-.638 1.112-.425.227-.806.42-1.142.578-.336.158-.702.297-1.097.415-.89.257-1.918.386-3.085.386-2.432 0-4.321-.682-5.665-2.047-1.345-1.364-2.017-3.302-2.017-5.814 0-2.175.564-3.984 1.691-5.428 1.266-1.621 3.065-2.432 5.398-2.432 2.215 0 3.965.751 5.25 2.254 1.206 1.404 1.809 3.144 1.809 5.22 0 .376-.124.692-.371.949s-.578.386-.994.386h-10.055c.158 1.345.662 2.412 1.513 3.203zm2.847-9.729c-1.76 0-3.045.781-3.856 2.343-.297.554-.465 1.216-.504 1.987h8.75c-.079-1.404-.593-2.511-1.542-3.322-.791-.672-1.74-1.008-2.847-1.008zm15.048 9.729c.85.791 2.037 1.186 3.559 1.186 1.523 0 2.798-.257 3.826-.771.356-.178.662-.267.919-.267s.504.109.742.326c.237.218.356.465.356.742 0 .514-.213.885-.638 1.112-.425.227-.806.42-1.142.578-.336.158-.702.297-1.097.415-.89.257-1.918.386-3.085.386-2.432 0-4.321-.682-5.665-2.047-1.345-1.364-2.017-3.302-2.017-5.814 0-2.175.564-3.984 1.691-5.428 1.266-1.621 3.065-2.432 5.398-2.432 2.215 0 3.965.751 5.25 2.254 1.206 1.404 1.809 3.144 1.809 5.22 0 .376-.124.692-.371.949s-.578.386-.994.386h-10.055c.158 1.345.662 2.412 1.513 3.203zm2.847-9.729c-1.76 0-3.045.781-3.856 2.343-.297.554-.465 1.216-.504 1.987h8.75c-.079-1.404-.593-2.511-1.542-3.322-.791-.672-1.74-1.008-2.847-1.008zm16.501 10.945c2.195 0 3.292-.702 3.292-2.106 0-.435-.218-.766-.653-.994-.435-.227-.984-.43-1.646-.608-.662-.178-1.379-.361-2.15-.549-.771-.188-1.488-.45-2.15-.786-.662-.336-1.211-.776-1.646-1.32-.435-.544-.653-1.211-.653-2.002 0-.791.119-1.473.356-2.047.237-.573.593-1.068 1.068-1.483 1.048-.89 2.501-1.335 4.36-1.335 1.483 0 2.917.247 4.301.742.277.099.489.257.638.475.148.218.222.46.222.727 0 .267-.114.519-.341.756-.227.237-.45.356-.667.356-.218 0-.484-.049-.801-.148-.949-.297-1.987-.445-3.114-.445-1.127 0-1.982.198-2.566.593-.583.395-.875.87-.875 1.424 0 .554.222.964.667 1.231.445.267.994.489 1.646.667.653.178 1.369.356 2.15.534.781.178 1.498.425 2.15.742 1.542.791 2.314 2.017 2.314 3.678 0 1.266-.475 2.294-1.424 3.085-1.028.87-2.462 1.305-4.301 1.305-1.997 0-3.797-.445-5.398-1.335-.336-.237-.504-.534-.504-.89s.109-.657.326-.905c.218-.247.455-.371.712-.371.257 0 .564.079.919.237 1.147.514 2.403.771 3.767.771zm16.961-.015c.227-.089.475-.133.742-.133s.509.099.727.297c.218.198.326.494.326.89 0 .395-.198.682-.593.86-.85.395-1.577.593-2.18.593-.603 0-1.152-.03-1.646-.089s-.969-.227-1.424-.504c-1.088-.633-1.631-1.74-1.631-3.322v-9.195h-2.106c-.376 0-.564-.188-.564-.564 0-.178.089-.346.267-.504l4.034-3.945c.178-.178.346-.267.504-.267.158 0 .292.059.4.178.109.119.163.257.163.415v2.373h3.352c.336 0 .613.109.831.326.218.218.326.494.326.831 0 .336-.109.613-.326.831-.218.218-.494.326-.831.326h-3.352v8.958c0 .751.227 1.266.682 1.542.257.158.648.237 1.172.237.524 0 .9-.044 1.127-.133zm9.071-1.201c.85.791 2.037 1.186 3.559 1.186 1.523 0 2.798-.257 3.826-.771.356-.178.662-.267.919-.267s.504.109.742.326c.237.218.356.465.356.742 0 .514-.213.885-.638 1.112-.425.227-.806.42-1.142.578-.336.158-.702.297-1.097.415-.89.257-1.918.386-3.085.386-2.432 0-4.321-.682-5.665-2.047-1.345-1.364-2.017-3.302-2.017-5.814 0-2.175.564-3.984 1.691-5.428 1.266-1.621 3.065-2.432 5.398-2.432 2.215 0 3.965.751 5.25 2.254 1.206 1.404 1.809 3.144 1.809 5.22 0 .376-.124.692-.371.949s-.578.386-.994.386h-10.055c.158 1.345.662 2.412 1.513 3.203zm2.847-9.729c-1.76 0-3.045.781-3.856 2.343-.297.554-.465 1.216-.504 1.987h8.75c-.079-1.404-.593-2.511-1.542-3.322-.791-.672-1.74-1.008-2.847-1.008zm14.395.504c1.384-1.859 2.936-2.788 4.657-2.788h.148c.376 0 .687.129.934.386s.371.578.371.964-.129.692-.386.919c-.257.227-.583.341-.979.341h-.148c-.989 0-1.874.242-2.655.727-.781.484-1.429 1.112-1.943 1.883v9.017c0 .376-.133.692-.4.949s-.588.386-.964.386-.692-.129-.949-.386-.386-.573-.386-.949v-12.725c0-.376.129-.697.386-.964s.573-.4.949-.4.697.133.964.4.4.588.4.964v1.275z" fill="#39414D"/></g></svg>