<svg width="207" height="49" viewBox="0 0 207 49" xmlns="http://www.w3.org/2000/svg"><g fill="none"><path d="M8.876 1.748c-1.104-.195-2.157.537-2.354 1.653-.196 1.108.539 2.164 1.645 2.359l35.231 6.223c1.104.195 2.157-.537 2.354-1.653.196-1.108-.539-2.164-1.645-2.359l-35.231-6.223zm-5.496 4.939c-1.104-.195-2.157.537-2.354 1.653-.196 1.108.539 2.164 1.645 2.359l35.231 6.223c1.104.195 2.157-.537 2.354-1.653.196-1.108-.539-2.164-1.645-2.359l-35.231-6.223zm3.48 6.525c-1.109-.196-2.166.535-2.363 1.651-.196 1.108.549 2.165 1.654 2.361l28.487 5.032c1.109.196 2.166-.535 2.363-1.651.196-1.108-.549-2.165-1.654-2.361l-28.487-5.032zm5.719 6.92c-1.113-.197-2.172.534-2.37 1.65-.196 1.108.546 2.165 1.661 2.362l23.991 4.238c1.113.197 2.172-.534 2.37-1.65.196-1.108-.546-2.165-1.661-2.362l-23.991-4.238zm4.583 6.72c-1.108-.196-2.164.536-2.361 1.651-.196 1.108.54 2.164 1.652 2.36l19.524 3.449c1.108.196 2.164-.536 2.361-1.651.196-1.108-.54-2.164-1.652-2.36l-19.524-3.449zm-5.499 4.938c-1.106-.195-2.161.536-2.358 1.652-.196 1.108.547 2.165 1.649 2.36l17.289 3.054c1.106.195 2.161-.536 2.358-1.652.196-1.108-.547-2.165-1.649-2.36l-17.289-3.054zm-3.25 5.336c-1.109-.196-2.165.536-2.362 1.651-.196 1.108.543 2.164 1.653 2.36l9.996 1.766c1.109.196 2.165-.536 2.362-1.651.196-1.108-.543-2.164-1.653-2.36l-9.996-1.766zm2.35 6.325c-1.109-.196-2.165.536-2.362 1.651-.196 1.108.546 2.165 1.653 2.36l1.589.281c1.109.196 2.165-.536 2.362-1.651.196-1.108-.546-2.165-1.653-2.36l-1.589-.281z" fill="#4A90E2"/><text font-family="Varela Round" font-size="30" letter-spacing="1" fill="#39414D"><tspan x="67.748" y="33.292">Tweeste</tspan><tspan x="193.728" y="33.292">r</tspan></text></g></svg>